<mxfile host="65bd71144e">
    <diagram id="-lUkKc9h_m-nN2Z2SPVY" name="Entry">
        <mxGraphModel dx="1409" dy="519" grid="1" gridSize="10" guides="1" tooltips="1" connect="1" arrows="1" fold="1" page="1" pageScale="1" pageWidth="1500" pageHeight="1500" math="0" shadow="0">
            <root>
                <mxCell id="0"/>
                <mxCell id="1" parent="0"/>
                <mxCell id="7" style="edgeStyle=none;html=1;entryX=0.5;entryY=0;entryDx=0;entryDy=0;entryPerimeter=0;" parent="1" target="4" edge="1">
                    <mxGeometry relative="1" as="geometry">
                        <mxPoint x="350" y="80" as="sourcePoint"/>
                    </mxGeometry>
                </mxCell>
                <mxCell id="6" value="no" style="edgeStyle=none;html=1;entryX=0;entryY=0.5;entryDx=0;entryDy=0;" parent="1" source="4" target="5" edge="1">
                    <mxGeometry relative="1" as="geometry"/>
                </mxCell>
                <mxCell id="9" value="yes" style="edgeStyle=none;html=1;entryX=0.5;entryY=0;entryDx=0;entryDy=0;" parent="1" source="4" target="8" edge="1">
                    <mxGeometry relative="1" as="geometry"/>
                </mxCell>
                <mxCell id="4" value="argc == 2" style="strokeWidth=2;html=1;shape=mxgraph.flowchart.decision;whiteSpace=wrap;" parent="1" vertex="1">
                    <mxGeometry x="300" y="130" width="100" height="100" as="geometry"/>
                </mxCell>
                <mxCell id="5" value="Throw error, exit with EXIT_FAILURE" style="rounded=1;whiteSpace=wrap;html=1;absoluteArcSize=1;arcSize=14;strokeWidth=2;" parent="1" vertex="1">
                    <mxGeometry x="490" y="140" width="120" height="80" as="geometry"/>
                </mxCell>
                <mxCell id="YezajQK5FHY1mKMTK0sC-21" value="" style="edgeStyle=none;html=1;" parent="1" source="8" target="YezajQK5FHY1mKMTK0sC-20" edge="1">
                    <mxGeometry relative="1" as="geometry"/>
                </mxCell>
                <mxCell id="8" value="Load bytecode file into character buffer" style="rounded=1;whiteSpace=wrap;html=1;absoluteArcSize=1;arcSize=14;strokeWidth=2;" parent="1" vertex="1">
                    <mxGeometry x="290" y="290" width="120" height="60" as="geometry"/>
                </mxCell>
                <mxCell id="YezajQK5FHY1mKMTK0sC-26" style="edgeStyle=none;html=1;entryX=0.5;entryY=0;entryDx=0;entryDy=0;" parent="1" source="10" target="YezajQK5FHY1mKMTK0sC-29" edge="1">
                    <mxGeometry relative="1" as="geometry">
                        <mxPoint x="640" y="710" as="targetPoint"/>
                    </mxGeometry>
                </mxCell>
                <mxCell id="10" value="Get line" style="rounded=1;whiteSpace=wrap;html=1;absoluteArcSize=1;arcSize=14;strokeWidth=2;" parent="1" vertex="1">
                    <mxGeometry x="580" y="610" width="120" height="60" as="geometry"/>
                </mxCell>
                <mxCell id="13" value="" style="verticalLabelPosition=bottom;verticalAlign=top;html=1;shape=mxgraph.flowchart.parallel_mode;pointerEvents=1" parent="1" vertex="1">
                    <mxGeometry x="430" y="300" width="95" height="40" as="geometry"/>
                </mxCell>
                <mxCell id="14" value="Create a fixed stack" style="rounded=1;whiteSpace=wrap;html=1;absoluteArcSize=1;arcSize=14;strokeWidth=2;" parent="1" vertex="1">
                    <mxGeometry x="540" y="285" width="140" height="70" as="geometry"/>
                </mxCell>
                <mxCell id="YezajQK5FHY1mKMTK0sC-47" value="" style="edgeStyle=none;html=1;" parent="1" source="YezajQK5FHY1mKMTK0sC-20" target="YezajQK5FHY1mKMTK0sC-46" edge="1">
                    <mxGeometry relative="1" as="geometry"/>
                </mxCell>
                <mxCell id="YezajQK5FHY1mKMTK0sC-20" value="Parse code for execution" style="whiteSpace=wrap;html=1;rounded=1;arcSize=14;strokeWidth=2;" parent="1" vertex="1">
                    <mxGeometry x="290" y="430" width="120" height="60" as="geometry"/>
                </mxCell>
                <mxCell id="YezajQK5FHY1mKMTK0sC-24" value="Start" style="strokeWidth=2;html=1;shape=mxgraph.flowchart.start_1;whiteSpace=wrap;" parent="1" vertex="1">
                    <mxGeometry x="300" y="20" width="100" height="60" as="geometry"/>
                </mxCell>
                <mxCell id="YezajQK5FHY1mKMTK0sC-32" value="yes" style="edgeStyle=none;html=1;" parent="1" source="YezajQK5FHY1mKMTK0sC-29" target="YezajQK5FHY1mKMTK0sC-31" edge="1">
                    <mxGeometry relative="1" as="geometry"/>
                </mxCell>
                <mxCell id="YezajQK5FHY1mKMTK0sC-34" value="no" style="edgeStyle=none;html=1;" parent="1" source="YezajQK5FHY1mKMTK0sC-29" target="YezajQK5FHY1mKMTK0sC-33" edge="1">
                    <mxGeometry relative="1" as="geometry"/>
                </mxCell>
                <mxCell id="YezajQK5FHY1mKMTK0sC-29" value="If line is empty" style="rhombus;whiteSpace=wrap;html=1;strokeWidth=2;" parent="1" vertex="1">
                    <mxGeometry x="577" y="730" width="120" height="80" as="geometry"/>
                </mxCell>
                <mxCell id="YezajQK5FHY1mKMTK0sC-51" style="edgeStyle=none;html=1;" parent="1" source="YezajQK5FHY1mKMTK0sC-31" target="YezajQK5FHY1mKMTK0sC-46" edge="1">
                    <mxGeometry relative="1" as="geometry">
                        <Array as="points">
                            <mxPoint x="837" y="530"/>
                        </Array>
                    </mxGeometry>
                </mxCell>
                <mxCell id="YezajQK5FHY1mKMTK0sC-31" value="Skip line" style="whiteSpace=wrap;html=1;strokeWidth=2;" parent="1" vertex="1">
                    <mxGeometry x="777" y="740" width="120" height="60" as="geometry"/>
                </mxCell>
                <mxCell id="YezajQK5FHY1mKMTK0sC-36" value="" style="edgeStyle=none;html=1;" parent="1" source="YezajQK5FHY1mKMTK0sC-33" target="YezajQK5FHY1mKMTK0sC-35" edge="1">
                    <mxGeometry relative="1" as="geometry"/>
                </mxCell>
                <mxCell id="YezajQK5FHY1mKMTK0sC-33" value="Get how many parameters the opcode expect and ignore the rest" style="whiteSpace=wrap;html=1;strokeWidth=2;" parent="1" vertex="1">
                    <mxGeometry x="540" y="880" width="195" height="70" as="geometry"/>
                </mxCell>
                <mxCell id="YezajQK5FHY1mKMTK0sC-38" value="" style="edgeStyle=none;html=1;" parent="1" source="YezajQK5FHY1mKMTK0sC-35" target="YezajQK5FHY1mKMTK0sC-37" edge="1">
                    <mxGeometry relative="1" as="geometry"/>
                </mxCell>
                <mxCell id="YezajQK5FHY1mKMTK0sC-35" value="Get the opcode's function" style="whiteSpace=wrap;html=1;strokeWidth=2;" parent="1" vertex="1">
                    <mxGeometry x="577.5" y="1035" width="120" height="60" as="geometry"/>
                </mxCell>
                <mxCell id="YezajQK5FHY1mKMTK0sC-52" style="edgeStyle=none;html=1;entryX=0;entryY=0.5;entryDx=0;entryDy=0;" parent="1" source="YezajQK5FHY1mKMTK0sC-37" target="YezajQK5FHY1mKMTK0sC-46" edge="1">
                    <mxGeometry relative="1" as="geometry">
                        <Array as="points">
                            <mxPoint x="450" y="1205"/>
                            <mxPoint x="450" y="520"/>
                        </Array>
                    </mxGeometry>
                </mxCell>
                <mxCell id="YezajQK5FHY1mKMTK0sC-37" value="Execute the function" style="whiteSpace=wrap;html=1;strokeWidth=2;" parent="1" vertex="1">
                    <mxGeometry x="577.5" y="1175" width="120" height="60" as="geometry"/>
                </mxCell>
                <mxCell id="YezajQK5FHY1mKMTK0sC-48" value="no" style="edgeStyle=none;html=1;entryX=0.5;entryY=0;entryDx=0;entryDy=0;" parent="1" source="YezajQK5FHY1mKMTK0sC-46" target="10" edge="1">
                    <mxGeometry relative="1" as="geometry"/>
                </mxCell>
                <mxCell id="YezajQK5FHY1mKMTK0sC-50" value="yes" style="edgeStyle=none;html=1;entryX=0;entryY=0.5;entryDx=0;entryDy=0;entryPerimeter=0;" parent="1" source="YezajQK5FHY1mKMTK0sC-46" target="YezajQK5FHY1mKMTK0sC-49" edge="1">
                    <mxGeometry relative="1" as="geometry"/>
                </mxCell>
                <mxCell id="YezajQK5FHY1mKMTK0sC-46" value="Check if we are at the end of the file" style="rhombus;whiteSpace=wrap;html=1;rounded=1;arcSize=14;strokeWidth=2;" parent="1" vertex="1">
                    <mxGeometry x="510" y="410" width="260" height="110" as="geometry"/>
                </mxCell>
                <mxCell id="YezajQK5FHY1mKMTK0sC-49" value="End" style="strokeWidth=2;html=1;shape=mxgraph.flowchart.terminator;whiteSpace=wrap;rounded=1;" parent="1" vertex="1">
                    <mxGeometry x="1030" y="430" width="100" height="60" as="geometry"/>
                </mxCell>
            </root>
        </mxGraphModel>
    </diagram>
</mxfile>